<svg width="416" height="252" viewBox="0 0 416 252" fill="none" xmlns="http://www.w3.org/2000/svg">
<path d="M404.352 1.03516C410.213 1.0353 414.965 5.78693 414.965 11.6484V240.352C414.965 246.213 410.213 250.965 404.352 250.965H11.6484C5.78693 250.965 1.0353 246.213 1.03516 240.352V11.6484C1.0353 5.78694 5.78694 1.0353 11.6484 1.03516H404.352Z" fill="#FFF1F1"/>
<path d="M404.352 1.03516C410.213 1.0353 414.965 5.78693 414.965 11.6484V240.352C414.965 246.213 410.213 250.965 404.352 250.965H11.6484C5.78693 250.965 1.0353 246.213 1.03516 240.352V11.6484C1.0353 5.78694 5.78694 1.0353 11.6484 1.03516H404.352Z" stroke="#FFA3A3" stroke-width="1.92974"/>
<mask id="mask0_2177_19020" style="mask-type:alpha" maskUnits="userSpaceOnUse" x="102" y="96" width="345" height="347">
<path fill-rule="evenodd" clip-rule="evenodd" d="M265.965 101.61C265.965 98.8062 268.201 96.5586 270.971 96.5586C271.626 96.5586 272.275 96.6893 272.88 96.9431C273.486 97.197 274.036 97.569 274.499 98.0381C274.963 98.5072 275.33 99.064 275.581 99.6769C275.832 100.29 275.961 100.947 275.961 101.61C275.961 102.273 275.832 102.93 275.581 103.543C275.33 104.156 274.963 104.713 274.499 105.182C274.036 105.651 273.486 106.023 272.88 106.277C272.275 106.531 271.626 106.661 270.971 106.661C269.646 106.661 268.375 106.13 267.436 105.183C266.498 104.236 265.969 102.951 265.965 101.61ZM271.257 128.558C272.571 128.623 273.885 128.416 275.119 127.952C276.352 127.487 277.479 126.773 278.432 125.854C279.385 124.935 280.143 123.829 280.661 122.605C281.179 121.38 281.446 120.062 281.446 118.729C281.445 117.397 281.177 116.079 280.658 114.855C280.139 113.631 279.38 112.526 278.427 111.607C277.473 110.689 276.345 109.976 275.111 109.513C273.878 109.049 272.564 108.843 271.249 108.909C268.757 109.033 266.408 110.123 264.688 111.953C262.968 113.783 262.009 116.212 262.01 118.737C262.011 121.263 262.972 123.691 264.693 125.52C266.414 127.348 268.765 128.436 271.257 128.558ZM231.039 338.514H312.032V256.557H231.039V338.514ZM250.436 318.88L292.596 276.214H250.436V318.88ZM240.533 247.833H302.252V185.368H240.533V247.833ZM255.326 232.851L287.458 200.326H255.326V232.851ZM248.773 177.599H293.238V132.623H248.773V177.599ZM259.434 166.815L282.569 143.415H259.434V166.815ZM346.973 213.319C346.973 206.819 352.164 201.532 358.61 201.532C365.055 201.532 370.246 206.537 370.246 213.045H383.57C383.57 198.932 372.505 187.491 358.896 187.491C345.263 187.491 334.23 198.932 334.23 213.045H346.981L346.973 213.319ZM410.201 213.319C410.201 206.819 415.4 201.532 421.853 201.532C428.283 201.532 433.474 206.537 433.474 213.045H446.806C446.806 198.932 435.749 187.491 422.139 187.491C408.507 187.491 397.458 198.932 397.458 213.045H410.209L410.201 213.319ZM376.9 195.353H390.231C390.231 179.087 379.67 165.038 360.265 165.038V177.944C366.911 177.952 376.9 184.131 376.9 195.353ZM420.174 177.952V165.038C400.769 165.038 390.231 179.087 390.231 195.353H403.547C403.539 184.131 413.52 177.952 420.174 177.952ZM383.562 290.788H397.442V213.045H383.57L383.562 290.788ZM382.997 175.712H397.442V148.764H382.997V175.712ZM335.854 290.788H375.802V250.386H335.854V290.788ZM326.995 339.649H366.912V299.215H326.995V339.649ZM382.997 339.649H422.952V299.215H382.997V339.649ZM115.097 221.174C115.097 214.674 120.328 209.395 126.765 209.395C133.187 209.395 138.402 214.4 138.402 220.9H151.717C151.717 206.787 140.661 195.353 127.044 195.353C113.403 195.353 102.347 206.787 102.347 220.9H115.105V221.174H115.097ZM178.341 221.174C178.341 214.674 183.548 209.395 189.993 209.395C196.415 209.395 201.63 214.4 201.63 220.9H214.961C214.961 206.787 203.897 195.353 190.256 195.353C176.639 195.353 165.59 206.787 165.59 220.9H178.349V221.174H178.341ZM145.048 203.216H158.371C158.371 186.942 147.833 172.9 128.421 172.9V185.807C135.075 185.807 145.048 191.994 145.048 203.216ZM188.314 185.807V172.9C168.909 172.9 158.371 186.942 158.371 203.216H171.679C171.679 191.994 181.676 185.807 188.314 185.807ZM151.717 298.667H165.582L165.59 220.9H151.717V298.667ZM151.153 183.575H165.575V156.626H151.153V183.575ZM177.784 307.642H217.723V267.216H177.784V307.642ZM137.86 348.624H177.784V308.198H137.86V348.624ZM315.359 394.658C334.756 394.658 344.195 407.565 344.195 407.565V378.361C344.195 378.361 334.756 365.454 315.359 365.454C295.374 365.454 286.507 378.361 286.507 378.361V407.565C286.507 407.572 295.374 394.658 315.359 394.658ZM409.652 394.658C429.056 394.658 438.48 407.565 438.48 407.565V378.361C438.48 378.361 429.056 365.454 409.652 365.454C389.659 365.454 380.8 378.361 380.8 378.361V407.565C380.8 407.572 389.659 394.658 409.652 394.658ZM345.278 442.947H380.235V407.565H345.278V442.947ZM292.604 442.947C292.604 393.483 252.997 353.096 204.137 353.096C155.277 353.096 115.662 393.201 115.662 442.658H133.953L204.408 371.359L275.133 442.947H292.604ZM230.482 442.947C230.482 439.445 229.8 435.977 228.476 432.741C227.152 429.505 225.211 426.565 222.764 424.089C220.318 421.612 217.413 419.648 214.216 418.307C211.019 416.967 207.593 416.277 204.133 416.277C200.673 416.277 197.246 416.967 194.05 418.307C190.853 419.648 187.948 421.612 185.501 424.089C183.055 426.565 181.114 429.505 179.79 432.741C178.466 435.977 177.784 439.445 177.784 442.947H230.482ZM256.541 359.847H423.501V348.053H229.925C238.242 348.053 260.99 359.847 256.541 359.847Z" fill="white"/>
</mask>
<g mask="url(#mask0_2177_19020)">
<rect x="83" y="97" width="331" height="153" fill="white"/>
</g>
</svg>
