<svg width="24" height="24" viewBox="0 0 24 24" fill="none" xmlns="http://www.w3.org/2000/svg">
<circle cx="12" cy="12" r="12" fill="#FFDEDE"/>
<path d="M12 15.5694C12.875 15.5694 13.6188 15.2656 14.2313 14.658C14.8438 14.0503 15.15 13.3125 15.15 12.4444C15.15 11.5764 14.8438 10.8385 14.2313 10.2309C13.6188 9.62326 12.875 9.31944 12 9.31944C11.125 9.31944 10.3813 9.62326 9.76875 10.2309C9.15625 10.8385 8.85 11.5764 8.85 12.4444C8.85 13.3125 9.15625 14.0503 9.76875 14.658C10.3813 15.2656 11.125 15.5694 12 15.5694ZM12 14.1806C11.51 14.1806 11.0958 14.0127 10.7575 13.6771C10.4192 13.3414 10.25 12.9306 10.25 12.4444C10.25 11.9583 10.4192 11.5475 10.7575 11.2118C11.0958 10.8762 11.51 10.7083 12 10.7083C12.49 10.7083 12.9042 10.8762 13.2425 11.2118C13.5808 11.5475 13.75 11.9583 13.75 12.4444C13.75 12.9306 13.5808 13.3414 13.2425 13.6771C12.9042 14.0127 12.49 14.1806 12 14.1806ZM6.4 18C6.015 18 5.68542 17.864 5.41125 17.592C5.13708 17.32 5 16.9931 5 16.6111V8.27778C5 7.89583 5.13708 7.56887 5.41125 7.29688C5.68542 7.02488 6.015 6.88889 6.4 6.88889H8.605L9.9 5.5H14.1L15.395 6.88889H17.6C17.985 6.88889 18.3146 7.02488 18.5888 7.29688C18.8629 7.56887 19 7.89583 19 8.27778V16.6111C19 16.9931 18.8629 17.32 18.5888 17.592C18.3146 17.864 17.985 18 17.6 18H6.4ZM6.4 16.6111H17.6V8.27778H14.765L13.4875 6.88889H10.5125L9.235 8.27778H6.4V16.6111Z" fill="#FF6868"/>
<circle cx="12" cy="12.5" r="2" fill="#FF6868"/>
</svg>
