<svg width="80" height="80" viewBox="0 0 80 80" fill="none" xmlns="http://www.w3.org/2000/svg">
<circle cx="40" cy="40" r="37.5" fill="#FFDEDE" fill-opacity="0.8"/>
<path d="M39.65 61C38.85 61 38.0832 60.85 37.35 60.55C36.6167 60.25 35.9666 59.8166 35.4 59.2501L25.2 49L26.7 47.45C27.2333 46.9166 27.8583 46.5583 28.575 46.375C29.2917 46.1917 30 46.2001 30.7 46.4L34 47.35V31C34 30.4333 34.1917 29.9583 34.5749 29.575C34.9583 29.1917 35.4333 29 36 29C36.5666 29 37.0416 29.1917 37.425 29.575C37.8083 29.9583 38 30.4333 38 31V52.6501L33.1499 51.3001L38.25 56.4001C38.4167 56.5667 38.625 56.7083 38.8749 56.825C39.125 56.9417 39.3833 57.0001 39.65 57.0001H48C49.1 57.0001 50.0417 56.6083 50.825 55.825C51.6083 55.0417 51.9999 54.1 51.9999 53V45.0001C51.9999 44.4334 52.1916 43.9583 52.575 43.5751C52.9583 43.1917 53.4333 43 54 43C54.5666 43 55.0416 43.1917 55.425 43.5751C55.8083 43.9583 56 44.4334 56 45.0001V53C56 55.2001 55.2167 57.0833 53.6499 58.6501C52.0833 60.2167 50.1999 61 48 61H39.65ZM39.9999 47V39.0001C39.9999 38.4334 40.1916 37.9583 40.575 37.5751C40.9583 37.1917 41.4333 37 42 37C42.5666 37 43.0416 37.1917 43.425 37.5751C43.8083 37.9583 44 38.4334 44 39.0001V47H39.9999ZM45.9999 47V41C45.9999 40.4333 46.1916 39.9583 46.575 39.575C46.9583 39.1916 47.4333 39.0001 48 39.0001C48.5666 39.0001 49.0416 39.1916 49.425 39.575C49.8083 39.9583 50 40.4333 50 41V47H45.9999ZM60 31H50V28H55.8C53.6 26.0667 51.15 24.5833 48.45 23.55C45.75 22.5167 42.9333 22 39.9999 22C37.0667 22 34.25 22.5167 31.55 23.55C28.85 24.5833 26.4 26.0667 24.2 28H30V31H20V21H23V25.05C25.4 23.0833 28.05 21.5833 30.95 20.55C33.85 19.5167 36.8666 19 39.9999 19C43.1333 19 46.1499 19.5167 49.05 20.55C51.95 21.5833 54.6 23.0833 57 25.05V21H60V31Z" fill="#A30000"/>
</svg>
