<svg width="1007" height="141" viewBox="0 0 1007 141" fill="none" xmlns="http://www.w3.org/2000/svg">
<path d="M993 2C999.627 2 1005 7.37258 1005 14V139H2V14C2 7.37258 7.37258 2 14 2H993Z" fill="#FFDEDE"/>
<path d="M993 2C999.627 2 1005 7.37258 1005 14V139H2V14C2 7.37258 7.37258 2 14 2H993Z" stroke="#A30000" stroke-width="4"/>
<mask id="mask0_2057_4531" style="mask-type:alpha" maskUnits="userSpaceOnUse" x="626" y="4" width="357" height="359">
<path fill-rule="evenodd" clip-rule="evenodd" d="M795.575 9.23525C795.575 6.32948 797.892 4 800.763 4C801.442 4 802.115 4.13541 802.743 4.39851C803.37 4.66161 803.94 5.04723 804.42 5.53337C804.901 6.01951 805.282 6.59664 805.542 7.23181C805.802 7.86697 805.935 8.54775 805.935 9.23525C805.935 9.92275 805.802 10.6035 805.542 11.2387C805.282 11.8739 804.901 12.451 804.42 12.9371C803.94 13.4233 803.37 13.8089 802.743 14.072C802.115 14.3351 801.442 14.4705 800.763 14.4705C799.39 14.4705 798.073 13.9195 797.1 12.9381C796.128 11.9568 795.579 10.6252 795.575 9.23525ZM801.06 37.1647C802.422 37.2316 803.784 37.0177 805.062 36.5359C806.341 36.0541 807.509 35.3145 808.496 34.3619C809.484 33.4094 810.27 32.2637 810.807 30.9945C811.344 29.7252 811.62 28.3588 811.62 26.9781C811.619 25.5974 811.341 24.2312 810.804 22.9623C810.266 21.6935 809.479 20.5485 808.491 19.5967C807.502 18.645 806.334 17.9063 805.055 17.4256C803.776 16.9448 802.414 16.732 801.052 16.8C798.469 16.9289 796.034 18.0585 794.252 19.9548C792.469 21.851 791.475 24.3687 791.476 26.9862C791.477 29.6037 792.473 32.1206 794.257 34.0154C796.041 35.9102 798.477 37.0378 801.06 37.1647ZM759.378 254.764H843.319V169.823H759.378V254.764ZM779.481 234.416L823.176 190.196H779.481V234.416ZM769.217 160.781H833.183V96.043H769.217V160.781ZM784.549 145.254L817.851 111.546H784.549V145.254ZM777.757 87.9912H823.842V41.3772H777.757V87.9912ZM788.807 76.8146L812.783 52.562H788.807V76.8146ZM879.533 125.011C879.533 118.275 884.913 112.796 891.593 112.796C898.273 112.796 903.653 117.982 903.653 124.727H917.462C917.462 110.101 905.995 98.2426 891.89 98.2426C877.76 98.2426 866.325 110.101 866.325 124.727H879.541L879.533 125.011ZM945.063 125.011C945.063 118.275 950.451 112.796 957.139 112.796C963.803 112.796 969.184 117.982 969.184 124.727H983C983 110.101 971.541 98.2426 957.436 98.2426C943.307 98.2426 931.856 110.101 931.856 124.727H945.071L945.063 125.011ZM910.55 106.392H924.366C924.366 89.5334 913.42 74.9721 893.309 74.9721V88.3484C900.197 88.3565 910.55 94.7605 910.55 106.392ZM955.399 88.3565V74.9721C935.288 74.9721 924.366 89.5334 924.366 106.392H938.167C938.159 94.7605 948.503 88.3565 955.399 88.3565ZM917.454 205.301H931.84V124.727H917.462L917.454 205.301ZM916.868 86.0351H931.84V58.1057H916.868V86.0351ZM868.009 205.301H909.411V163.428H868.009V205.301ZM858.828 255.941H900.197V214.035H858.828V255.941ZM916.868 255.941H958.278V214.035H916.868V255.941ZM639.215 133.152C639.215 126.416 644.636 120.945 651.308 120.945C657.963 120.945 663.368 126.131 663.368 132.868H677.168C677.168 118.242 665.709 106.392 651.596 106.392C637.459 106.392 626 118.242 626 132.868H639.223V133.152H639.215ZM704.761 133.152C704.761 126.416 710.158 120.945 716.838 120.945C723.493 120.945 728.898 126.131 728.898 132.868H742.715C742.715 118.242 731.248 106.392 717.11 106.392C702.997 106.392 691.546 118.242 691.546 132.868H704.769V133.152H704.761ZM670.256 114.541H684.065C684.065 97.6744 673.143 83.1212 653.024 83.1212V96.4975C659.92 96.4975 670.256 102.91 670.256 114.541ZM715.098 96.4975V83.1212C694.986 83.1212 684.065 97.6744 684.065 114.541H697.857C697.857 102.91 708.217 96.4975 715.098 96.4975ZM677.168 213.467H691.538L691.546 132.868H677.168V213.467ZM676.583 94.1842H691.53V66.2548H676.583V94.1842ZM704.184 222.768H745.577V180.87H704.184V222.768ZM662.807 265.243H704.184V223.345H662.807V265.243ZM846.767 312.953C866.871 312.953 876.654 326.329 876.654 326.329V296.062C876.654 296.062 866.871 282.686 846.767 282.686C826.055 282.686 816.865 296.062 816.865 296.062V326.329C816.865 326.337 826.055 312.953 846.767 312.953ZM944.493 312.953C964.605 312.953 974.372 326.329 974.372 326.329V296.062C974.372 296.062 964.605 282.686 944.493 282.686C923.773 282.686 914.591 296.062 914.591 296.062V326.329C914.591 326.337 923.773 312.953 944.493 312.953ZM877.776 363H914.006V326.329H877.776V363ZM823.184 363C823.184 311.735 782.135 269.878 731.496 269.878C680.857 269.878 639.8 311.443 639.8 362.7H658.757L731.777 288.806L805.077 363H823.184ZM758.8 363C758.8 359.37 758.094 355.776 756.722 352.422C755.349 349.069 753.338 346.021 750.802 343.455C748.266 340.888 745.256 338.852 741.943 337.463C738.629 336.074 735.078 335.359 731.492 335.359C727.906 335.359 724.355 336.074 721.042 337.463C717.729 338.852 714.718 340.888 712.182 343.455C709.647 346.021 707.635 349.069 706.263 352.422C704.89 355.776 704.184 359.37 704.184 363H758.8ZM785.808 276.874H958.847V264.65H758.223C766.843 264.65 790.419 276.874 785.808 276.874Z" fill="white"/>
</mask>
<g mask="url(#mask0_2057_4531)">
<rect x="606" y="4" width="405" height="134" fill="white"/>
</g>
</svg>
