<svg width="80" height="80" viewBox="0 0 80 80" fill="none" xmlns="http://www.w3.org/2000/svg">
<circle cx="40.5" cy="39.5" r="37.5" fill="#FFDEDE" fill-opacity="0.8"/>
<path d="M38.4069 60C37.545 60 36.7369 59.8048 35.9827 59.4143C35.2285 59.0238 34.5897 58.4706 34.0664 57.7548L24 44.2345L24.8773 43.2583C25.493 42.575 26.2318 42.1683 27.0938 42.0381C27.9557 41.9079 28.7561 42.0869 29.4949 42.575L32.912 44.7714V28.7619C32.912 28.2087 33.089 27.745 33.443 27.3708C33.797 26.9966 34.2357 26.8095 34.759 26.8095C35.2823 26.8095 35.7287 26.9966 36.0981 27.3708C36.4675 27.745 36.6522 28.2087 36.6522 28.7619V51.8L32.1732 48.8714L36.9755 55.3631C37.1602 55.5909 37.3757 55.7698 37.6219 55.9C37.8682 56.0302 38.1299 56.0952 38.4069 56.0952H48.6118C49.6277 56.0952 50.4974 55.7129 51.2208 54.9482C51.9442 54.1835 52.3059 53.2643 52.3059 52.1905V44.381C52.3059 43.8278 52.1289 43.3641 51.7749 42.9899C51.4209 42.6157 50.9822 42.4286 50.4589 42.4286H40.3463V38.5238H50.4589C51.9981 38.5238 53.3064 39.0933 54.3838 40.2321C55.4613 41.371 56 42.754 56 44.381V52.1905C56 54.3381 55.2766 56.1766 53.8297 57.706C52.3829 59.2353 50.6436 60 48.6118 60H38.4069ZM26.7706 33.6429C26.3704 32.927 26.0625 32.1542 25.847 31.3244C25.6316 30.4946 25.5238 29.6405 25.5238 28.7619C25.5238 26.0611 26.4242 23.7589 28.2251 21.8554C30.026 19.9518 32.2039 19 34.759 19C37.3141 19 39.4921 19.9518 41.2929 21.8554C43.0938 23.7589 43.9942 26.0611 43.9942 28.7619C43.9942 29.6405 43.8865 30.4946 43.671 31.3244C43.4555 32.1542 43.1477 32.927 42.7475 33.6429L39.5613 31.6905C39.8076 31.2349 39.9923 30.7712 40.1154 30.2994C40.2386 29.8276 40.3001 29.3151 40.3001 28.7619C40.3001 27.1349 39.7614 25.752 38.684 24.6131C37.6065 23.4742 36.2982 22.9048 34.759 22.9048C33.2198 22.9048 31.9115 23.4742 30.8341 24.6131C29.7566 25.752 29.2179 27.1349 29.2179 28.7619C29.2179 29.3151 29.2795 29.8276 29.4026 30.2994C29.5257 30.7712 29.7104 31.2349 29.9567 31.6905L26.7706 33.6429Z" fill="#A30000"/>
</svg>
